<svg id="Calque_1" data-name="Calque 1" xmlns="http://www.w3.org/2000/svg" viewBox="0 0 259.74 57.38"><defs><style>.cls-1{fill:#c1e6fb;}.cls-2{fill:#b9ce00;}.cls-3{fill:#fec833;}.cls-4{fill:#936037;}.cls-5{fill:#eaf6fe;}.cls-6{fill:#cbbba0;}.cls-7{fill:#063;}.cls-8{fill:#432918;}</style></defs><title>Sans titre - 1</title><ellipse class="cls-1" cx="125.9" cy="28.69" rx="31.22" ry="28.02"/><path class="cls-2" d="M134.23,44.27c-10.75,0-20.21,4.91-25.78,12.36a33.31,33.31,0,0,0,51.56,0C154.45,49.17,145,44.27,134.23,44.27Z" transform="translate(-8.33 -12.13)"/><polygon class="cls-3" points="111.41 22.44 125.64 16.44 140.4 22.44 111.41 22.44 111.41 22.44"/><polygon class="cls-4" points="111.41 22.44 140.4 22.44 140.4 31.97 124.11 31.97 111.41 31.97 111.41 22.44"/><rect class="cls-5" x="114.19" y="24.82" width="9.92" height="7.13"/><rect class="cls-5" x="127.62" y="24.82" width="9.92" height="7.11"/><path class="cls-6" d="M162.19,53.29a37.41,37.41,0,0,0-55.91,0,27.49,27.49,0,0,0,2.18,3.33c5.57-7.45,15-12.36,25.78-12.36S154.45,49.17,160,56.62A27.49,27.49,0,0,0,162.19,53.29Z" transform="translate(-8.33 -12.13)"/><path class="cls-2" d="M114,25.76c-2.21,3-6,4.63-9.34,6.2a25.28,25.28,0,0,0-.69,15.59,51.27,51.27,0,0,1,7.53-6.27c5.28-3.44,4.08-11.87,2.87-15.47A.21.21,0,0,0,114,25.76Z" transform="translate(-8.33 -12.13)"/><path class="cls-7" d="M111.46,41.27a50.1,50.1,0,0,0-7.53,6.28,26.85,26.85,0,0,0,5.74,10.55c2.18-2.57,5.44-5.54,6.52-8.8,1.59-4.83.53-9.33-1.75-11.71A7.9,7.9,0,0,1,111.46,41.27Z" transform="translate(-8.33 -12.13)"/><path class="cls-2" d="M154.23,25.89c2.21,3,6,4.63,9.34,6.2a25.28,25.28,0,0,1,.69,15.59,51.27,51.27,0,0,0-7.53-6.27c-5.28-3.44-4.08-11.87-2.87-15.47A.21.21,0,0,1,154.23,25.89Z" transform="translate(-8.33 -12.13)"/><path class="cls-7" d="M156.73,41.4a50.1,50.1,0,0,1,7.53,6.28,26.85,26.85,0,0,1-5.74,10.55c-2.18-2.57-5.44-5.54-6.52-8.8-1.59-4.83-.53-9.33,1.75-11.71A7.9,7.9,0,0,0,156.73,41.4Z" transform="translate(-8.33 -12.13)"/><path class="cls-3" d="M136.35,44.33c-.7,0-1.4-.07-2.11-.07a34.75,34.75,0,0,0-4.25.27l-.28.06c-3.53,3.13-.47,5.88,3.42,11.19,3.78,5.16,3,8.82-2.36,12.88,1.14.11,2.29.18,3.47.18a33.91,33.91,0,0,0,15-3.44c-.89-4.71-5.64-9.47-10-13.39C134.52,47.78,135.28,45.44,136.35,44.33Z" transform="translate(-8.33 -12.13)"/><path class="cls-8" d="M166.13,40.82c0-15.82-14.31-28.69-31.89-28.69-13.94,0-25.82,8.09-30.14,19.33h0l-.1.26-.09.25-.23.66-.17.55c-.07.23-.14.47-.21.7s-.1.37-.14.56q-.14.55-.26,1.11c-.05.25-.1.5-.15.75s-.06.38-.09.58-.08.5-.11.76,0,.36-.06.54-.05.57-.07.86,0,.3,0,.45c0,.44,0,.89,0,1.33h0c0,.4,0,.79,0,1.19v0a.57.57,0,0,0,0,.14,25.89,25.89,0,0,0,.8,5.16h0l.1.38h0l.06.21,0,.06.23.82,0,0q.2.61.42,1.21l.07.2q.19.49.4,1l.2.44.34.71.34.67.11.21h0l.22.4c.07.13.16.25.23.38l.18.31.2.33.18.28c.16.25.31.5.48.74l.09.14.42.59c.15.21.29.43.45.64l.54.71,0,0,.13.17.16.19.39.47.51.59h0a33.33,33.33,0,0,0,24.55,10.4c.63,0,1.25,0,1.86-.05l.48,0c.48,0,1-.07,1.42-.12l.48-.05q.75-.09,1.49-.21l.34-.06a34.52,34.52,0,0,0,3.62-.83l.47-.14,1.18-.38.72-.25.86-.33.85-.34.47-.21c.35-.16.71-.31,1.06-.48l.06,0A31.32,31.32,0,0,0,160,57.7l0,0,.54-.71c.34-.45.67-.92,1-1.39l0,0c.28-.41.53-.84.79-1.27l.29-.48.14-.24.22-.4,0,0A26.15,26.15,0,0,0,166.13,40.82Zm-1.69-1.38a8.37,8.37,0,0,0-.64-.57,37.73,37.73,0,0,1-7.81-8.6.67.67,0,0,0-1.15.69,38.34,38.34,0,0,0,8.11,9,3.68,3.68,0,0,1,1.52,2.34,24.73,24.73,0,0,1-.57,4.13l-.27-.25c-.44-.42-.91-.85-1.41-1.3l-.31-.27q-.67-.59-1.4-1.19l-.17-.14c-.46-.38-.94-.75-1.43-1.11l-.39-.29c-.47-.34-.95-.68-1.43-1a6.79,6.79,0,0,1-.83-.64l-.15-.16a6.9,6.9,0,0,1-.57-.6l-.17-.23a7.43,7.43,0,0,1-.43-.62l-.17-.3c-.12-.21-.23-.43-.33-.66-1.53-3.48-.9-8.09-.21-10.64,2.16,2.5,5.38,4,8.25,5.34l.54.25A24.75,24.75,0,0,1,164.43,39.44Zm-30.2-26c13,0,24,7.26,28.48,17.47-3-1.41-6.08-2.91-7.94-5.45a.88.88,0,0,0-.86-.35.86.86,0,0,0-.69.58c-.95,2.82-1.75,7.86-.25,11.88a10.58,10.58,0,0,0-2.36,6.06c-.4-.19-.81-.36-1.22-.53V34.57s0,0,0,0a.65.65,0,0,0,0-.16.44.44,0,0,0-.12-.22l0-.06A.67.67,0,0,0,149,34L149,34h0l-14.76-6a.67.67,0,0,0-.51,0l-14.23,6h0a.66.66,0,0,0-.19.13l0,.05a.66.66,0,0,0-.09.14l0,.06a.66.66,0,0,0,0,.23v8.55c-.5.21-1,.43-1.49.66a10.67,10.67,0,0,0-2.37-6.31c1.5-4,.7-9.06-.25-11.88a.87.87,0,0,0-.69-.58.89.89,0,0,0-.86.35c-1.77,2.43-4.64,3.9-7.51,5.25C110.43,20.58,121.42,13.47,134.23,13.47Zm13.82,21.77v7.35c-.51-.19-1-.38-1.54-.55V36.95a.65.65,0,0,0-.65-.65h-9.92a.65.65,0,0,0-.65.65V40.1l-1.06,0c-.37,0-.74,0-1.12,0V36.95a.67.67,0,0,0-.67-.67h-9.92a.67.67,0,0,0-.67.67v5.12c-.49.16-1,.34-1.44.52V35.24Zm-25-1.34L134,29.3l11.32,4.6Zm22.16,7.73a39,39,0,0,0-8.62-1.49V37.6h8.62Zm-13.45-1.49a39,39,0,0,0-8.58,1.5v-4h8.58Zm2.46,1.26a37.28,37.28,0,0,1,16.34,3.71,15.17,15.17,0,0,0,.31,2.76,34.11,34.11,0,0,0-14.48-4.21h0c-.76,0-1.46-.07-2.15-.07s-1.47,0-2.22.08c-.59,0-1.17.1-1.75.17l-.43,0h0a33.87,33.87,0,0,0-12.59,4.2,15.37,15.37,0,0,0,.39-2.81A37.22,37.22,0,0,1,134.23,41.41Zm-29.94,4.83c-.14-.63-.25-1.26-.34-1.9l0-.28c-.09-.64-.15-1.29-.18-1.94h0a3.68,3.68,0,0,1,1.52-2.34,38.29,38.29,0,0,0,8.11-9,.67.67,0,0,0-1.15-.69,37.71,37.71,0,0,1-7.81,8.6,8.45,8.45,0,0,0-.64.57,24.77,24.77,0,0,1,1.39-6.82l0,0,.54-.25c2.87-1.34,6.08-2.84,8.24-5.34.69,2.55,1.32,7.16-.21,10.64-.1.23-.21.45-.33.66l-.16.3a7.44,7.44,0,0,1-.44.63l-.17.23a6.92,6.92,0,0,1-.57.6l-.15.15a6.79,6.79,0,0,1-.78.6l-.05,0c-.48.32-1,.65-1.43,1l-.38.28c-.49.36-1,.74-1.43,1.11l-.16.13q-.74.61-1.42,1.21l-.28.25c-.51.46-1,.9-1.44,1.33Zm5.38,10.82a27.26,27.26,0,0,1-2.25-3.15l-.28-.48-.3-.52a20.11,20.11,0,0,0,7.08-9.75.67.67,0,0,0-1.3-.34,19.1,19.1,0,0,1-6.42,8.88l0-.06q-.42-.87-.77-1.76l-.11-.29c-.23-.6-.44-1.21-.62-1.83h0l1.16-1.11.42-.39.28-.25.71-.64.16-.14.79-.68.14-.12.76-.62.23-.18.66-.51.42-.31.49-.35.93-.63,0,0a8.17,8.17,0,0,0,.86-.65c.13-.11.24-.23.37-.35s.27-.26.39-.4.28-.34.41-.51l.22-.3c.15-.22.29-.44.42-.66l.06-.1c1.55,2.21,2.37,6,1,10.26-.78,2.38-2.9,4.7-4.76,6.74ZM130.57,68a31.61,31.61,0,0,1-20-9.88l1.21-1.35c1.84-2,3.89-4.29,4.86-6.76A32.18,32.18,0,0,1,128,45.51c-1.58,2.6.38,5.19,3,8.58.5.65,1,1.35,1.57,2.09C136.08,61,135.53,64.17,130.57,68Zm17.12-2.6-.46.2-1,.39-.7.26-.83.28-.94.29-.67.19-1.15.29-.53.12c-.44.09-.88.18-1.32.25l-.42.08c-.47.08-1,.14-1.43.2l-.36,0c-.49.05-1,.09-1.49.12l-.33,0q-.91,0-1.82,0c-.57,0-1.14,0-1.73,0,4.46-3.91,4.78-7.79,1.16-12.73-.55-.75-1.09-1.45-1.59-2.11-3.15-4.13-4.36-5.93-2.06-8.07h.07l1.11-.12.2,0,.86-.06.5,0,.62,0h1l.72,0a3.44,3.44,0,0,0-.26,1.46c.06,1.77,1.38,3.81,3.9,6.08,4.2,3.77,8.6,8.18,9.68,12.5Zm2-1c-1.28-4.57-5.75-9.06-10-12.88-2.8-2.51-3.42-4.17-3.46-5.13a2.07,2.07,0,0,1,.43-1.35,32.57,32.57,0,0,1,14.75,4.72c.9,2.62,3.08,5,5,7.13.45.49.88,1,1.29,1.44A30.18,30.18,0,0,1,149.68,64.39ZM162,51.84A19.1,19.1,0,0,1,155.55,43a.67.67,0,0,0-1.3.34,20.11,20.11,0,0,0,7.09,9.76,26.93,26.93,0,0,1-2.83,4.15L157.4,56c-1.86-2-4-4.36-4.76-6.74-1.41-4.27-.59-8,1-10.26l.06.1c.13.23.27.45.42.66l.23.31c.13.17.26.34.41.5s.26.28.4.41.23.23.35.34a8.18,8.18,0,0,0,.88.67l.93.63.48.35.42.31.66.51.23.18.75.61.16.13.77.66.18.16.68.61.31.28.36.33c.43.4.84.8,1.21,1.16A25.23,25.23,0,0,1,162,51.84Z" transform="translate(-8.33 -12.13)"/><path class="cls-8" d="M181.51,44.69a3.4,3.4,0,0,1-2.78,2.06c-1.48,0-2.66-1-2.66-3.11,0-4,2.35-5.93,4.46-5.93a2.35,2.35,0,0,1,1.88.79l.87-5a3.09,3.09,0,0,0,0-1.55,2,2,0,0,1,.94-.16c1.39,0,1.55.52,1.34,1.79l-1.73,10c-.18,1.08.13,1.59.78,1.59a2.51,2.51,0,0,0,1.9-1.57c.23,0,.4.14.34.47a3.67,3.67,0,0,1-3.23,2.67A2,2,0,0,1,181.51,44.69Zm.52-4,.16-.85a1.31,1.31,0,0,0-1.19-.87c-1.23,0-2.62,1.82-2.62,4.73,0,1,.4,1.5,1.07,1.5C180.73,45.18,181.69,42.47,182,40.66Z" transform="translate(-8.33 -12.13)"/><path class="cls-8" d="M186.15,42.85A4.93,4.93,0,0,1,191,37.72c1.84,0,2.58,1,2.58,1.88,0,1.64-1.9,2.73-5.08,3.32a2.48,2.48,0,0,0,2.58,2.4,4,4,0,0,0,3.52-1.72c.23,0,.36.14.29.47-.16.79-1.9,2.67-4.66,2.67A3.77,3.77,0,0,1,186.15,42.85Zm2.37-.78c2.2-.52,3.13-1.63,3.13-2.82a.6.6,0,0,0-.63-.63C190,38.62,188.72,39.82,188.52,42.07Z" transform="translate(-8.33 -12.13)"/><path class="cls-8" d="M199.27,41.71c1.32.69,1.79,1.43,1.79,2.38,0,1.43-1.21,2.66-3.83,2.66-2.31,0-3.29-1.19-3.29-2.13a1.1,1.1,0,0,1,1.19-1.08,1.25,1.25,0,0,1,.87.25,1.37,1.37,0,0,0-.09.52,1.4,1.4,0,0,0,1.5,1.54c1,0,1.52-.54,1.52-1.14,0-.43-.23-.79-.88-1.14l-1.77-.94a2.43,2.43,0,0,1-1.57-2.26c0-1.46,1.26-2.66,3.83-2.66,2.24,0,3.29,1.19,3.29,2.13a1.1,1.1,0,0,1-1.19,1.08,1.25,1.25,0,0,1-.87-.25,1.37,1.37,0,0,0,.09-.52,1.44,1.44,0,0,0-1.54-1.54c-1,0-1.48.51-1.48,1.14s.29.83.88,1.14Z" transform="translate(-8.33 -12.13)"/><path class="cls-8" d="M212.39,44.35a3.16,3.16,0,0,1-.44,1.19,3.52,3.52,0,0,0,1,.15c2.75,0,4.42-2.31,4.42-5.73,0-3.14-1.92-5.07-5.15-5.07-2.52,0-3.45,1.21-3.45,2.18,0,.48.25.78.68.78a.69.69,0,0,0,.29-.05.55.55,0,0,1,0,.15c0,.41-.42,1-1.29,1a1.63,1.63,0,0,1-1.79-1.7c0-1.68,1.82-3.25,5.46-3.25,4.67,0,7.6,2.57,7.6,6.26,0,4.06-2.6,6.49-6.22,6.49a6,6,0,0,1-2.33-.46,3.11,3.11,0,0,1-1.75.46c-1,0-1.38-.51-1.38-1s.39-1,1.29-1a3.1,3.1,0,0,1,.66.08l1.22-7a3.15,3.15,0,0,0,0-1.6,2,2,0,0,1,1-.17c1.26,0,1.5.54,1.28,1.85Z" transform="translate(-8.33 -12.13)"/><path class="cls-8" d="M226.14,44a7.93,7.93,0,0,1-.77,1.26,2.93,2.93,0,0,1-2.4,1.44,1.8,1.8,0,0,1-1.85-2,11.43,11.43,0,0,1,.2-2.09l.49-2.82a2.91,2.91,0,0,0,0-1.46,1.86,1.86,0,0,1,.88-.15c1.31,0,1.46.49,1.26,1.68l-.68,3.93c-.17,1,.07,1.41.56,1.41s.82-.46,1.26-1.14a12.85,12.85,0,0,0,1.72-4.44,2.61,2.61,0,0,0,0-1.29,1.87,1.87,0,0,1,.88-.15c1.31,0,1.46.49,1.26,1.68l-.66,3.84c-.17,1,.12,1.5.73,1.5a2.36,2.36,0,0,0,1.79-1.48c.22,0,.37.14.32.44a3.45,3.45,0,0,1-3,2.52,1.91,1.91,0,0,1-2-2.12C226.12,44.43,226.12,44.25,226.14,44Z" transform="translate(-8.33 -12.13)"/><path class="cls-8" d="M244.52,43.75c.22,0,.37.14.32.44a3.49,3.49,0,0,1-3,2.52,2,2,0,0,1-2.06-2.12,15.71,15.71,0,0,1,.25-1.94l.32-1.87c.14-.8,0-1.07-.41-1.07-.87,0-2.18,2.48-2.7,5.39a2.9,2.9,0,0,0,0,1.46,1.86,1.86,0,0,1-.88.15c-1.31,0-1.46-.49-1.26-1.68l.75-4.25c.14-.73,0-1.07-.39-1.07-.83,0-2.16,2.24-2.72,5.39a2.91,2.91,0,0,0,0,1.46,1.86,1.86,0,0,1-.88.15c-1.31,0-1.46-.49-1.26-1.68l.9-5.2a2.9,2.9,0,0,0,0-1.46,1.86,1.86,0,0,1,.88-.15c1.31,0,1.46.49,1.26,1.68l-.07.41c.56-.94,1.56-2.09,2.74-2.09A1.64,1.64,0,0,1,238.08,40c0,.12,0,.24,0,.37.54-1,1.58-2.14,2.79-2.14A1.64,1.64,0,0,1,242.6,40a9.17,9.17,0,0,1-.15,1.38l-.41,2.4c-.17,1,.08,1.5.7,1.5A2.22,2.22,0,0,0,244.52,43.75Z" transform="translate(-8.33 -12.13)"/><path class="cls-8" d="M252,41.46a7.22,7.22,0,0,1-.08,1.07A3.38,3.38,0,0,0,254,41.2c.22,0,.34.17.31.42a3,3,0,0,1-2.53,1.68,4.43,4.43,0,0,1-4.45,3.4,3,3,0,0,1-3.13-3.25c0-3.08,1.8-5.25,4.71-5.25A3,3,0,0,1,252,41.46Zm-2.19-1.1c-.08-.85-.48-1.31-1.11-1.31-.85,0-1.73.87-2.21,3.4a12.39,12.39,0,0,0-.15,1.75c0,1.07.41,1.67,1.12,1.67.92,0,1.68-1,2.12-3a1.61,1.61,0,0,1-.65-1.34A1.1,1.1,0,0,1,249.83,40.35Z" transform="translate(-8.33 -12.13)"/><path class="cls-8" d="M259.08,40.78c.14-.82,0-1.07-.41-1.07-1.07,0-2.69,2.53-3.21,5.39a2.91,2.91,0,0,0,0,1.46,1.86,1.86,0,0,1-.88.15c-1.31,0-1.46-.49-1.26-1.68l.9-5.2a2.9,2.9,0,0,0,0-1.46,1.86,1.86,0,0,1,.88-.15c1.31,0,1.46.49,1.26,1.68l-.14.78c.66-1.1,2-2.46,3.33-2.46A1.64,1.64,0,0,1,261.31,40a9.16,9.16,0,0,1-.15,1.38l-.41,2.4c-.15.83,0,1.5.7,1.5s1.34-.59,1.79-1.48c.22,0,.37.14.32.44a3.47,3.47,0,0,1-3,2.52,2,2,0,0,1-2.06-2.12,14.93,14.93,0,0,1,.25-1.94Z" transform="translate(-8.33 -12.13)"/><path class="cls-8" d="M264.1,38.21l.17-.92a2.91,2.91,0,0,0,0-1.46,1.86,1.86,0,0,1,.88-.15c1.31,0,1.46.49,1.26,1.68l-.15.85H268a.57.57,0,0,1,.12.36c0,.29-.2.49-.58.49h-1.38l-.78,4.42c-.2,1.16.14,1.75.8,1.75a1.09,1.09,0,0,0,1-.48c.19,0,.31.19.27.44a2.1,2.1,0,0,1-2.18,1.51,2.06,2.06,0,0,1-2.06-2.21,10.61,10.61,0,0,1,.19-1.85l.63-3.59h-1.1a.57.57,0,0,1-.12-.36c0-.29.2-.49.58-.49Z" transform="translate(-8.33 -12.13)"/><path class="cls-8" d="M11.45,44.77l1.67-9.55a4.58,4.58,0,0,0,.09-.89H13c-1.65,0-2.47.92-2.47,2,0,.51.27.83.73.83a.75.75,0,0,0,.31-.05.57.57,0,0,1,0,.16c0,.44-.45,1-1.38,1a1.74,1.74,0,0,1-1.9-1.81c0-1.79,1.65-3.1,4.57-3.1h1.27c1.34,0,1.61.58,1.36,2l-1.69,9.61c.89.05,1.94.11,3.34.11a5,5,0,0,0,2.68-.47,1.2,1.2,0,0,1,.2.78c0,.92-.63,1.6-2,1.6a12.62,12.62,0,0,1-4.51-1,2.79,2.79,0,0,1-2.1,1c-1,0-1.41-.54-1.41-1.07s.42-1.09,1.32-1.09Z" transform="translate(-8.33 -12.13)"/><path class="cls-8" d="M28.41,39.77c0,2-2.72,2.85-5.09,3.32A2.6,2.6,0,0,0,26,45.5a2,2,0,0,0,1.7-.76c.22,0,.33.11.29.33-.13.78-1.34,1.87-3.15,1.87A3.74,3.74,0,0,1,21,43a4.94,4.94,0,0,1,4.79-5.13C27.69,37.87,28.41,38.79,28.41,39.77Zm-5.09,2.46c2.21-.53,3.15-1.65,3.15-2.79a.6.6,0,0,0-.65-.67C24.64,38.77,23.5,40.22,23.32,42.24Z" transform="translate(-8.33 -12.13)"/><path class="cls-8" d="M42,33.34c1.34,0,1.61.58,1.36,2L41.52,45.73c-.45,2.61-1.9,3.73-4.15,3.73-1.76,0-2.7-.89-2.7-2.08A1.28,1.28,0,0,1,36.12,46a1.53,1.53,0,0,1,.67.11,3.16,3.16,0,0,0-.31,1.29c0,.67.34,1.05.92,1.05.76,0,1.31-.6,1.61-2.32l1.92-10.93a6.14,6.14,0,0,0,.09-.89h-.18c-1.65,0-2.47.92-2.47,2,0,.51.27.83.73.83a.74.74,0,0,0,.31-.05.57.57,0,0,1,0,.16c0,.44-.45,1-1.38,1a1.74,1.74,0,0,1-1.9-1.81c0-1.79,1.65-3.1,4.57-3.1Z" transform="translate(-8.33 -12.13)"/><path class="cls-8" d="M52.3,43.76c-.2,1.09.13,1.59.78,1.59A2.52,2.52,0,0,0,55,43.78c.24,0,.4.15.34.47a3.68,3.68,0,0,1-3.25,2.68,2,2,0,0,1-2.12-2,3.36,3.36,0,0,1-2.77,2c-1.49,0-2.67-1-2.67-3.12,0-4,2.36-5.95,4.48-5.95a2.38,2.38,0,0,1,2,.89c.29-.65.74-.89,1.63-.89a1.83,1.83,0,0,1,.91.18,3.59,3.59,0,0,0-.42,1.31Zm-1.79-2.94.16-.85a1.31,1.31,0,0,0-1.2-.87c-1.23,0-2.63,1.83-2.63,4.75,0,1,.4,1.5,1.07,1.5C49.2,45.35,50.16,42.64,50.51,40.82Z" transform="translate(-8.33 -12.13)"/><path class="cls-8" d="M58.37,40.46c1.16-2,2.38-2.59,3.19-2.59A1.31,1.31,0,0,1,63,39.28,1.57,1.57,0,0,1,61.51,41a3,3,0,0,1-.82-.11,2.06,2.06,0,0,0,.24-.91c0-.25-.11-.4-.38-.4s-.69.24-1.29,1.07a10,10,0,0,0-1.72,4.64,2.74,2.74,0,0,0,0,1.45,2,2,0,0,1-.94.16c-1.4,0-1.56-.53-1.34-1.79l1-5.55a3.1,3.1,0,0,0,0-1.56,2,2,0,0,1,.94-.16c1.4,0,1.56.58,1.34,1.79Z" transform="translate(-8.33 -12.13)"/><path class="cls-8" d="M69.19,44.86a3.41,3.41,0,0,1-2.79,2.07c-1.49,0-2.67-1-2.67-3.12,0-4,2.36-5.95,4.48-5.95a2.36,2.36,0,0,1,1.89.8L71,33.61A3.09,3.09,0,0,0,71,32a2,2,0,0,1,.94-.16c1.4,0,1.56.53,1.34,1.79L71.53,43.76c-.18,1.09.13,1.59.78,1.59a2.51,2.51,0,0,0,1.9-1.58c.24,0,.4.15.34.47a3.68,3.68,0,0,1-3.25,2.68A2,2,0,0,1,69.19,44.86Zm.53-4,.16-.85a1.31,1.31,0,0,0-1.2-.87c-1.23,0-2.63,1.83-2.63,4.75,0,1,.4,1.5,1.07,1.5C68.41,45.35,69.37,42.64,69.72,40.82Z" transform="translate(-8.33 -12.13)"/><path class="cls-8" d="M75.31,39.59a3.06,3.06,0,0,0,0-1.56,2,2,0,0,1,.94-.16c1.4,0,1.56.53,1.34,1.79l-.71,4.1c-.18,1.09.13,1.59.78,1.59a2.52,2.52,0,0,0,1.9-1.58c.24,0,.4.15.34.47a3.68,3.68,0,0,1-3.24,2.68,2,2,0,0,1-2.12-2.27,10.56,10.56,0,0,1,.16-1.72Zm1.9-5.75A1.08,1.08,0,0,1,78.34,35,1.27,1.27,0,0,1,77,36.24a1,1,0,0,1-1.09-1.09A1.28,1.28,0,0,1,77.22,33.84Z" transform="translate(-8.33 -12.13)"/><path class="cls-8" d="M86,40.6c.15-.87,0-1.14-.44-1.14-1.14,0-2.86,2.7-3.43,5.75a3.09,3.09,0,0,0,0,1.56,2,2,0,0,1-.94.16c-1.4,0-1.56-.53-1.34-1.79l1-5.55a3.1,3.1,0,0,0,0-1.56,2,2,0,0,1,.94-.16c1.4,0,1.56.53,1.34,1.79L83,40.5c.71-1.18,2-2.63,3.55-2.63a1.75,1.75,0,0,1,1.87,1.87,9.81,9.81,0,0,1-.16,1.47l-.44,2.47c-.24,1.3.05,1.69.53,1.69a.75.75,0,0,0,.69-.51c.25,0,.38.2.34.53a2,2,0,0,1-2.1,1.56,1.92,1.92,0,0,1-1.83-2.14,11.13,11.13,0,0,1,.2-1.85Z" transform="translate(-8.33 -12.13)"/></svg>